<svg width="3854" height="512" viewBox="0 0 247 40" fill="none" xmlns="http://www.w3.org/2000/svg">
  <path d="M53.5933 14.7089H56.3264C55.9642 9.17671 61.0354 8.09002 65.3821 9.01206L65.2175 12.8978C63.6698 12.5026 61.3976 12.5026 61.4964 14.7089H65.1845V19.2203H61.4306V32.3263H56.2606V19.2203H53.5933V14.7089Z" fill="#282828"/>
  <path d="M85.2694 23.4353C85.2694 36.1133 66.2689 36.0474 66.2689 23.4353C66.2689 10.7244 85.2694 10.7573 85.2694 23.4353ZM71.4718 23.4353C71.4718 29.3956 80.0665 29.4285 80.0665 23.4353C80.0665 17.3762 71.4718 17.4092 71.4718 23.4353Z" fill="#282828"/>
  <path d="M92.8762 22.4474V32.3263H87.7062V14.5113H92.3822L92.5798 15.6968C93.7323 14.6101 95.0166 14.1491 96.4655 14.1491C97.0912 14.1491 97.7827 14.2479 98.4742 14.4125L98.4084 19.2862C97.8815 19.1215 97.2558 19.0227 96.6631 19.0227C94.7861 19.0556 92.8762 20.0435 92.8762 22.4474Z" fill="#282828"/>
  <path d="M101.41 14.5113H106.646V16.2895C107.897 14.7089 110.005 14.215 111.915 14.2479C113.956 14.3467 115.274 15.2687 116.097 16.6188C117.315 14.9394 119.917 14.182 121.991 14.2808C125.35 14.4125 128.05 16.6518 127.984 22.2828V32.3263H122.749V22.3157C122.749 20.1753 121.728 19.3849 120.542 19.352C119.258 19.3191 117.348 20.2082 117.315 22.184V32.3263H112.079V22.3157C112.079 20.1753 111.059 19.3849 109.873 19.352C108.589 19.3191 106.909 20.2411 106.909 22.2498V32.3263H101.41C101.41 24.6537 101.41 22.184 101.41 14.5113Z" fill="#282828"/>
  <path d="M150.28 22.645C150.346 23.1719 150.313 23.7317 150.214 24.1927H135.132C135.132 27.6832 138.458 29.7908 141.126 29.7908C143.332 29.7908 145.373 28.8358 146.427 26.8271H149.753C148.403 30.7128 144.748 32.6556 141.093 32.6556C136.515 32.6556 131.905 29.5602 131.905 23.4353C131.905 17.3104 136.449 14.2479 141.158 14.2479C145.571 14.2479 149.918 17.0469 150.28 22.645ZM135.264 21.5254H146.888C146.263 18.3312 143.727 17.0799 141.158 17.0799C138.557 17.0799 135.923 18.3641 135.264 21.5254Z" fill="#282828"/>
  <path d="M154.533 14.5113H157.76V16.7176C159.077 14.8077 160.987 14.2479 163.227 14.2479C168.66 14.2479 170.965 17.6397 170.965 22.7438V32.3263H167.771V22.7767C167.771 19.4508 166.915 17.1786 163.128 17.1128C159.67 17.0469 157.76 19.5167 157.76 22.645V32.3263H154.533V14.5113Z" fill="#282828"/>
  <path d="M193.734 31.6678C193.734 37.2 188.992 39.3404 184.579 39.3404C180.101 39.3404 175.919 37.5622 175.919 33.5118H179.113C179.113 35.784 182.208 36.5084 184.547 36.4755C187.378 36.4426 190.507 35.0924 190.507 31.6678V29.7908C188.959 31.8324 186.72 32.2934 184.514 32.2934C178.52 32.2934 175.063 28.3089 175.063 23.4682C175.063 18.5617 178.356 14.182 184.579 14.215C186.786 14.215 189.223 14.9724 190.54 16.8823V14.5113H193.734V31.6678ZM184.481 29.4615C188.498 29.4615 190.507 26.2673 190.507 22.9743C190.507 19.813 188.564 17.1457 184.711 17.0469C180.628 16.9481 178.29 20.2411 178.29 23.4682C178.323 26.5966 180.562 29.4615 184.481 29.4615Z" fill="#282828"/>
  <path d="M202.175 32.3263H198.948V14.3138H202.175V32.3263ZM198.553 9.93409C198.553 12.4368 202.57 12.4368 202.57 9.93409C202.57 7.43143 198.553 7.49729 198.553 9.93409Z" fill="#282828"/>
  <path d="M207.594 14.5113H210.821V16.7176C212.138 14.8077 214.048 14.2479 216.287 14.2479C221.721 14.2479 224.026 17.6397 224.026 22.7438V32.3263H220.832V22.7767C220.832 19.4508 219.975 17.1786 216.188 17.1128C212.731 17.0469 210.821 19.5167 210.821 22.645V32.3263H207.594V14.5113Z" fill="#282828"/>
  <path d="M246.175 22.645C246.241 23.1719 246.208 23.7317 246.109 24.1927H231.027C231.027 27.6832 234.353 29.7908 237.021 29.7908C239.227 29.7908 241.269 28.8358 242.322 26.8271H245.648C244.298 30.7128 240.643 32.6556 236.988 32.6556C232.41 32.6556 227.8 29.5602 227.8 23.4353C227.8 17.3104 232.345 14.2479 237.054 14.2479C241.466 14.2479 245.813 17.0469 246.175 22.645ZM231.159 21.5254H242.783C242.158 18.3312 239.622 17.0799 237.054 17.0799C234.452 17.0799 231.818 18.3641 231.159 21.5254Z" fill="#282828"/>
  <path d="M29.2573 0C29.2573 6.02479 24.0479 10.9089 17.6216 10.9092H11.0757V40H0.166504V10.9092C0.166504 4.90833 5.01171 0.0398003 11.0034 0.000976562V0.0253906C11.1408 0.0166506 11.2788 0.0100825 11.4175 0.00585938H11.4282C11.5527 0.00217235 11.6779 0 11.8032 0H29.2573Z" fill="url(#paint0_linear_3210_3996)"/>
  <path d="M0.166504 26.9818C0.166504 20.9569 5.05067 16.0727 11.0756 16.0727L29.2574 16.0727C29.2574 22.0976 24.3732 26.9818 18.3483 26.9818H0.166504Z" fill="#4286F4"/>
  <defs>
    <linearGradient id="paint0_linear_3210_3996" x1="3.73014" y1="6.45008" x2="28.9879" y2="23.2045" gradientUnits="userSpaceOnUse">
      <stop stop-color="#4286F4"/>
      <stop offset="1" stop-color="#373B44"/>
    </linearGradient>
  </defs>
</svg>
