<svg width="2557" height="413" viewBox="0 0 2557 413" fill="none" xmlns="http://www.w3.org/2000/svg">
  <path
    d="M180 112.5H112.5V412.5H0V112.5C0 50.6181 49.9631 0.405831 111.75 0.00244761V0.261612C113.169 0.171318 114.593 0.104027 116.025 0.0604248L116.131 0.0573349C117.416 0.0192261 118.706 0 120 0H300C300 62.1321 246.274 112.5 180 112.5Z"
    fill="url(#paint0_linear_832_3213)"/>
  <path d="M0 278.25C0 216.118 50.368 165.75 112.5 165.75H300C300 227.882 249.632 278.25 187.5 278.25H0Z" fill="#4286F4"/>
  <path
    d="M552 146.453V193.033H579.54V328.353H632.92V193.033H671.68V146.453H633.6C632.58 123.673 656.04 123.673 672.02 127.753L673.72 87.6328C628.84 78.1128 576.48 89.3328 580.22 146.453H552Z"
    fill="white"/>
  <path
    d="M879.056 236.553C879.056 105.653 682.876 105.313 682.876 236.553C682.876 366.773 879.056 367.453 879.056 236.553ZM736.596 236.553C736.596 174.333 825.336 173.993 825.336 236.553C825.336 298.433 736.596 298.093 736.596 236.553Z"
    fill="white"/>
  <path
    d="M957.596 226.353C957.596 201.533 977.316 191.333 996.696 190.993C1002.82 190.993 1009.28 192.013 1014.72 193.713L1015.4 143.393C1008.26 141.693 1001.12 140.673 994.656 140.673C979.696 140.673 966.436 145.433 954.536 156.653L952.496 144.413H904.216V328.353H957.596V226.353Z"
    fill="white"/>
  <path
    d="M1045.71 144.413C1045.71 223.633 1045.71 249.133 1045.71 328.353H1102.49V224.313C1102.49 203.573 1119.83 194.053 1133.09 194.393C1145.33 194.733 1155.87 202.893 1155.87 224.993V328.353H1209.93V223.633C1210.27 203.233 1229.99 194.053 1243.25 194.393C1255.49 194.733 1266.03 202.893 1266.03 224.993V328.353H1320.09V224.653C1320.77 166.513 1292.89 143.393 1258.21 142.033C1236.79 141.013 1209.93 148.833 1197.35 166.173C1188.85 152.233 1175.25 142.713 1154.17 141.693C1134.45 141.353 1112.69 146.453 1099.77 162.773V144.413H1045.71Z"
    fill="white"/>
  <path
    d="M1404.09 90.3528H1370.77V328.353H1404.09V303.533C1417.35 323.593 1442.51 331.073 1465.29 331.413C1529.55 331.413 1560.49 286.193 1560.49 235.533C1560.49 185.893 1528.19 141.353 1465.97 141.353C1443.19 141.353 1420.07 146.453 1404.09 168.213V90.3528ZM1404.09 236.213C1404.09 192.013 1435.37 170.253 1466.65 170.593C1506.77 171.273 1526.83 203.233 1527.17 235.533C1527.51 269.193 1506.09 302.853 1463.93 301.833C1433.67 301.153 1404.09 279.393 1404.09 236.213Z"
    fill="white"/>
  <path
    d="M1768.46 328.353V142.713H1735.14V244.373C1735.14 277.013 1715.76 302.173 1679.72 301.493C1640.62 300.813 1632.12 277.353 1632.12 243.353V142.713H1598.8V243.353C1598.8 296.053 1622.94 331.073 1678.7 331.073C1702.5 331.073 1723.24 324.273 1736.84 304.213V328.353H1768.46Z"
    fill="white"/>
  <path
    d="M1855.34 328.353H1822.02V142.373H1855.34V328.353ZM1817.94 97.1528C1817.94 122.993 1859.42 122.993 1859.42 97.1528C1859.42 71.3128 1817.94 71.9928 1817.94 97.1528Z"
    fill="white"/>
  <path d="M1942.29 90.3528H1908.97V328.353H1942.29V90.3528Z" fill="white"/>
  <path
    d="M2140.87 168.213C2124.89 146.453 2101.77 141.353 2078.99 141.353C2016.77 141.353 1981.41 182.833 1981.41 235.533C1981.41 290.273 2015.07 331.413 2079.33 331.413C2102.45 331.073 2127.61 323.593 2140.87 303.533V328.353H2174.19V90.3528H2140.87V168.213ZM2140.87 236.213C2140.87 279.393 2111.29 301.153 2080.69 301.833C2038.53 302.853 2014.39 274.293 2014.73 235.533C2015.07 203.233 2038.19 171.273 2078.31 170.593C2109.59 170.253 2140.87 192.013 2140.87 236.213Z"
    fill="white"/>
  <path
    d="M2406.27 228.393C2402.53 170.593 2357.65 141.693 2312.09 141.693C2263.47 141.693 2216.55 173.313 2216.55 236.553C2216.55 299.793 2264.15 331.753 2311.41 331.753C2349.15 331.753 2386.89 311.693 2400.83 271.573H2366.49C2355.61 292.313 2334.53 302.173 2311.75 302.173C2284.21 302.173 2249.87 280.413 2249.87 244.373H2405.59C2406.61 239.613 2406.95 233.833 2406.27 228.393ZM2251.23 216.833C2258.03 184.193 2285.23 170.933 2312.09 170.933C2338.61 170.933 2364.79 183.853 2371.25 216.833H2251.23Z"
    fill="white"/>
  <path
    d="M2450.18 144.753V328.353H2483.16V228.733C2483.16 188.953 2519.2 161.413 2556.94 172.633V143.393C2527.7 136.593 2500.84 142.373 2483.16 167.193V144.753H2450.18Z"
    fill="white"/>
  <defs>
    <linearGradient id="paint0_linear_832_3213" x1="36.75" y1="66.5164" x2="297.221" y2="239.297" gradientUnits="userSpaceOnUse">
      <stop stop-color="#4286F4"/>
      <stop offset="1" stop-color="#373B44"/>
    </linearGradient>
  </defs>
</svg>